<svg xmlns="http://www.w3.org/2000/svg" viewBox="0 0 960 224" width="100%">
  <rect x="0.5" y="0.5" width="959" height="223" rx="12" fill="#faf9f6" stroke="#b5b1a8"/>
  <text x="20" y="34" font-family='-apple-system, BlinkMacSystemFont, "Segoe UI", system-ui, sans-serif' font-size="13" font-weight="600" fill="#525252" letter-spacing="0.08em">COMING SOON</text>
  
    <g>
      <rect x="20" y="64" width="221" height="64" rx="10" fill="none" stroke="#b5b1a8" stroke-width="1" stroke-dasharray="4 4"/>
      <svg x="36" y="84" width="20" height="20" viewBox="0 0 24 24" fill="none" stroke="#525252" stroke-width="2" stroke-linecap="round" stroke-linejoin="round"><path d="M5 5a2 2 0 0 1 3.008-1.728l11.997 6.998a2 2 0 0 1 .003 3.458l-12 7A2 2 0 0 1 5 19z" /></svg>
      <text x="68" y="101" font-family='-apple-system, BlinkMacSystemFont, "Segoe UI", system-ui, sans-serif' font-size="13" font-weight="500" fill="#1a1a1a">Code Execution</text>
    </g>
    <g>
      <rect x="253" y="64" width="221" height="64" rx="10" fill="none" stroke="#b5b1a8" stroke-width="1" stroke-dasharray="4 4"/>
      <svg x="269" y="84" width="20" height="20" viewBox="0 0 24 24" fill="none" stroke="#525252" stroke-width="2" stroke-linecap="round" stroke-linejoin="round"><path d="m6 14 1.5-2.9A2 2 0 0 1 9.24 10H20a2 2 0 0 1 1.94 2.5l-1.54 6a2 2 0 0 1-1.95 1.5H4a2 2 0 0 1-2-2V5a2 2 0 0 1 2-2h3.9a2 2 0 0 1 1.69.9l.81 1.2a2 2 0 0 0 1.67.9H18a2 2 0 0 1 2 2v2" /></svg>
      <text x="301" y="101" font-family='-apple-system, BlinkMacSystemFont, "Segoe UI", system-ui, sans-serif' font-size="13" font-weight="500" fill="#1a1a1a">Projects</text>
    </g>
    <g>
      <rect x="486" y="64" width="221" height="64" rx="10" fill="none" stroke="#b5b1a8" stroke-width="1" stroke-dasharray="4 4"/>
      <svg x="502" y="84" width="20" height="20" viewBox="0 0 24 24" fill="none" stroke="#525252" stroke-width="2" stroke-linecap="round" stroke-linejoin="round"><path d="M12 8V4H8" />
  <rect width="16" height="12" x="4" y="8" rx="2" />
  <path d="M2 14h2" />
  <path d="M20 14h2" />
  <path d="M15 13v2" />
  <path d="M9 13v2" /></svg>
      <text x="534" y="101" font-family='-apple-system, BlinkMacSystemFont, "Segoe UI", system-ui, sans-serif' font-size="13" font-weight="500" fill="#1a1a1a">Custom Bots</text>
    </g>
    <g>
      <rect x="719" y="64" width="221" height="64" rx="10" fill="none" stroke="#b5b1a8" stroke-width="1" stroke-dasharray="4 4"/>
      <svg x="735" y="84" width="20" height="20" viewBox="0 0 24 24" fill="none" stroke="#525252" stroke-width="2" stroke-linecap="round" stroke-linejoin="round"><path d="M12 18V5" />
  <path d="M15 13a4.17 4.17 0 0 1-3-4 4.17 4.17 0 0 1-3 4" />
  <path d="M17.598 6.5A3 3 0 1 0 12 5a3 3 0 1 0-5.598 1.5" />
  <path d="M17.997 5.125a4 4 0 0 1 2.526 5.77" />
  <path d="M18 18a4 4 0 0 0 2-7.464" />
  <path d="M19.967 17.483A4 4 0 1 1 12 18a4 4 0 1 1-7.967-.517" />
  <path d="M6 18a4 4 0 0 1-2-7.464" />
  <path d="M6.003 5.125a4 4 0 0 0-2.526 5.77" /></svg>
      <text x="767" y="101" font-family='-apple-system, BlinkMacSystemFont, "Segoe UI", system-ui, sans-serif' font-size="13" font-weight="500" fill="#1a1a1a">Memory</text>
    </g>
    <g>
      <rect x="20" y="140" width="221" height="64" rx="10" fill="none" stroke="#b5b1a8" stroke-width="1" stroke-dasharray="4 4"/>
      <svg x="36" y="160" width="20" height="20" viewBox="0 0 24 24" fill="none" stroke="#525252" stroke-width="2" stroke-linecap="round" stroke-linejoin="round"><path d="m16 6-8.414 8.586a2 2 0 0 0 2.829 2.829l8.414-8.586a4 4 0 1 0-5.657-5.657l-8.379 8.551a6 6 0 1 0 8.485 8.485l8.379-8.551" /></svg>
      <text x="68" y="177" font-family='-apple-system, BlinkMacSystemFont, "Segoe UI", system-ui, sans-serif' font-size="13" font-weight="500" fill="#1a1a1a">File Handling</text>
    </g>
    <g>
      <rect x="253" y="140" width="221" height="64" rx="10" fill="none" stroke="#b5b1a8" stroke-width="1" stroke-dasharray="4 4"/>
      <svg x="269" y="160" width="20" height="20" viewBox="0 0 24 24" fill="none" stroke="#525252" stroke-width="2" stroke-linecap="round" stroke-linejoin="round"><path d="M9 18V5l12-2v13" />
  <circle cx="6" cy="18" r="3" />
  <circle cx="18" cy="16" r="3" /></svg>
      <text x="301" y="177" font-family='-apple-system, BlinkMacSystemFont, "Segoe UI", system-ui, sans-serif' font-size="13" font-weight="500" fill="#1a1a1a">Audio Generation</text>
    </g>
</svg>